<mxfile host="app.diagrams.net" modified="2024-04-10T08:29:44.006Z" agent="Mozilla/5.0 (Macintosh; Intel Mac OS X 10_15_7) AppleWebKit/537.36 (KHTML, like Gecko) Chrome/123.0.0.0 Safari/537.36" etag="975zuIjQEqVPLvo5Znwv" version="24.2.3" type="github">
  <diagram id="C5RBs43oDa-KdzZeNtuy" name="Page-1">
    <mxGraphModel dx="1434" dy="739" grid="1" gridSize="10" guides="1" tooltips="1" connect="1" arrows="1" fold="1" page="1" pageScale="1" pageWidth="827" pageHeight="1169" math="0" shadow="0">
      <root>
        <mxCell id="WIyWlLk6GJQsqaUBKTNV-0" />
        <mxCell id="WIyWlLk6GJQsqaUBKTNV-1" parent="WIyWlLk6GJQsqaUBKTNV-0" />
        <mxCell id="Z6Fpm4Yamzv-W9hcDJNI-27" value="" style="rounded=0;whiteSpace=wrap;html=1;" vertex="1" parent="WIyWlLk6GJQsqaUBKTNV-1">
          <mxGeometry x="90" y="65" width="680" height="525" as="geometry" />
        </mxCell>
        <mxCell id="Z6Fpm4Yamzv-W9hcDJNI-2" style="edgeStyle=orthogonalEdgeStyle;rounded=0;orthogonalLoop=1;jettySize=auto;html=1;" edge="1" parent="WIyWlLk6GJQsqaUBKTNV-1" source="Z6Fpm4Yamzv-W9hcDJNI-0" target="Z6Fpm4Yamzv-W9hcDJNI-1">
          <mxGeometry relative="1" as="geometry" />
        </mxCell>
        <mxCell id="Z6Fpm4Yamzv-W9hcDJNI-0" value="FEM encoder" style="rounded=0;whiteSpace=wrap;html=1;fillColor=#d5e8d4;strokeColor=#82b366;" vertex="1" parent="WIyWlLk6GJQsqaUBKTNV-1">
          <mxGeometry x="130" y="451" width="250" height="30" as="geometry" />
        </mxCell>
        <mxCell id="Z6Fpm4Yamzv-W9hcDJNI-19" style="edgeStyle=orthogonalEdgeStyle;rounded=0;orthogonalLoop=1;jettySize=auto;html=1;" edge="1" parent="WIyWlLk6GJQsqaUBKTNV-1" source="Z6Fpm4Yamzv-W9hcDJNI-1">
          <mxGeometry relative="1" as="geometry">
            <mxPoint x="255" y="336" as="targetPoint" />
          </mxGeometry>
        </mxCell>
        <mxCell id="Z6Fpm4Yamzv-W9hcDJNI-1" value="Feed Forward" style="rounded=0;whiteSpace=wrap;html=1;fillColor=#fff2cc;strokeColor=#d6b656;" vertex="1" parent="WIyWlLk6GJQsqaUBKTNV-1">
          <mxGeometry x="130" y="371" width="250" height="30" as="geometry" />
        </mxCell>
        <mxCell id="Z6Fpm4Yamzv-W9hcDJNI-3" value="Yf" style="text;html=1;align=center;verticalAlign=middle;whiteSpace=wrap;rounded=0;" vertex="1" parent="WIyWlLk6GJQsqaUBKTNV-1">
          <mxGeometry x="190" y="411" width="60" height="30" as="geometry" />
        </mxCell>
        <mxCell id="Z6Fpm4Yamzv-W9hcDJNI-5" style="edgeStyle=orthogonalEdgeStyle;rounded=0;orthogonalLoop=1;jettySize=auto;html=1;" edge="1" parent="WIyWlLk6GJQsqaUBKTNV-1" source="Z6Fpm4Yamzv-W9hcDJNI-4" target="Z6Fpm4Yamzv-W9hcDJNI-0">
          <mxGeometry relative="1" as="geometry" />
        </mxCell>
        <mxCell id="Z6Fpm4Yamzv-W9hcDJNI-4" value="Xf: M*N bank flows" style="text;html=1;align=center;verticalAlign=middle;whiteSpace=wrap;rounded=0;" vertex="1" parent="WIyWlLk6GJQsqaUBKTNV-1">
          <mxGeometry x="182.5" y="521" width="145" height="30" as="geometry" />
        </mxCell>
        <mxCell id="Z6Fpm4Yamzv-W9hcDJNI-7" value="" style="shape=card;whiteSpace=wrap;html=1;fillColor=#fff2cc;strokeColor=#d6b656;" vertex="1" parent="WIyWlLk6GJQsqaUBKTNV-1">
          <mxGeometry x="200" y="266" width="50" height="60" as="geometry" />
        </mxCell>
        <mxCell id="Z6Fpm4Yamzv-W9hcDJNI-8" value="" style="shape=card;whiteSpace=wrap;html=1;fillColor=#fff2cc;strokeColor=#d6b656;" vertex="1" parent="WIyWlLk6GJQsqaUBKTNV-1">
          <mxGeometry x="260" y="266" width="50" height="60" as="geometry" />
        </mxCell>
        <mxCell id="Z6Fpm4Yamzv-W9hcDJNI-9" value="" style="shape=card;whiteSpace=wrap;html=1;fillColor=#fff2cc;strokeColor=#d6b656;" vertex="1" parent="WIyWlLk6GJQsqaUBKTNV-1">
          <mxGeometry x="320" y="266" width="50" height="60" as="geometry" />
        </mxCell>
        <mxCell id="Z6Fpm4Yamzv-W9hcDJNI-10" value="" style="shape=card;whiteSpace=wrap;html=1;fillColor=#fff2cc;strokeColor=#d6b656;" vertex="1" parent="WIyWlLk6GJQsqaUBKTNV-1">
          <mxGeometry x="380" y="266" width="50" height="60" as="geometry" />
        </mxCell>
        <mxCell id="Z6Fpm4Yamzv-W9hcDJNI-11" value="" style="shape=card;whiteSpace=wrap;html=1;fillColor=#dae8fc;strokeColor=#6c8ebf;" vertex="1" parent="WIyWlLk6GJQsqaUBKTNV-1">
          <mxGeometry x="440" y="266" width="50" height="60" as="geometry" />
        </mxCell>
        <mxCell id="Z6Fpm4Yamzv-W9hcDJNI-12" value="" style="shape=card;whiteSpace=wrap;html=1;fillColor=#dae8fc;strokeColor=#6c8ebf;" vertex="1" parent="WIyWlLk6GJQsqaUBKTNV-1">
          <mxGeometry x="500" y="266" width="50" height="60" as="geometry" />
        </mxCell>
        <mxCell id="Z6Fpm4Yamzv-W9hcDJNI-13" value="" style="shape=card;whiteSpace=wrap;html=1;fillColor=#dae8fc;strokeColor=#6c8ebf;" vertex="1" parent="WIyWlLk6GJQsqaUBKTNV-1">
          <mxGeometry x="560" y="266" width="50" height="60" as="geometry" />
        </mxCell>
        <mxCell id="Z6Fpm4Yamzv-W9hcDJNI-14" value="" style="shape=card;whiteSpace=wrap;html=1;fillColor=#dae8fc;strokeColor=#6c8ebf;" vertex="1" parent="WIyWlLk6GJQsqaUBKTNV-1">
          <mxGeometry x="620" y="266" width="50" height="60" as="geometry" />
        </mxCell>
        <mxCell id="Z6Fpm4Yamzv-W9hcDJNI-18" style="edgeStyle=orthogonalEdgeStyle;rounded=0;orthogonalLoop=1;jettySize=auto;html=1;" edge="1" parent="WIyWlLk6GJQsqaUBKTNV-1" source="Z6Fpm4Yamzv-W9hcDJNI-15">
          <mxGeometry relative="1" as="geometry">
            <mxPoint x="539" y="356" as="targetPoint" />
          </mxGeometry>
        </mxCell>
        <mxCell id="Z6Fpm4Yamzv-W9hcDJNI-15" value="LLM embedding" style="rounded=0;whiteSpace=wrap;html=1;fillColor=#66B2FF;strokeColor=#6c8ebf;" vertex="1" parent="WIyWlLk6GJQsqaUBKTNV-1">
          <mxGeometry x="414" y="450" width="250" height="30" as="geometry" />
        </mxCell>
        <mxCell id="Z6Fpm4Yamzv-W9hcDJNI-16" value="Xq" style="text;html=1;align=center;verticalAlign=middle;whiteSpace=wrap;rounded=0;" vertex="1" parent="WIyWlLk6GJQsqaUBKTNV-1">
          <mxGeometry x="458.5" y="516" width="145" height="30" as="geometry" />
        </mxCell>
        <mxCell id="Z6Fpm4Yamzv-W9hcDJNI-17" style="edgeStyle=orthogonalEdgeStyle;rounded=0;orthogonalLoop=1;jettySize=auto;html=1;entryX=0.468;entryY=1.033;entryDx=0;entryDy=0;entryPerimeter=0;" edge="1" parent="WIyWlLk6GJQsqaUBKTNV-1" source="Z6Fpm4Yamzv-W9hcDJNI-16" target="Z6Fpm4Yamzv-W9hcDJNI-15">
          <mxGeometry relative="1" as="geometry" />
        </mxCell>
        <mxCell id="Z6Fpm4Yamzv-W9hcDJNI-20" value="Hf" style="text;html=1;align=center;verticalAlign=middle;whiteSpace=wrap;rounded=0;" vertex="1" parent="WIyWlLk6GJQsqaUBKTNV-1">
          <mxGeometry x="267.5" y="341" width="60" height="30" as="geometry" />
        </mxCell>
        <mxCell id="Z6Fpm4Yamzv-W9hcDJNI-21" value="Hq" style="text;html=1;align=center;verticalAlign=middle;whiteSpace=wrap;rounded=0;" vertex="1" parent="WIyWlLk6GJQsqaUBKTNV-1">
          <mxGeometry x="550" y="356" width="60" height="30" as="geometry" />
        </mxCell>
        <mxCell id="Z6Fpm4Yamzv-W9hcDJNI-24" style="edgeStyle=orthogonalEdgeStyle;rounded=0;orthogonalLoop=1;jettySize=auto;html=1;" edge="1" parent="WIyWlLk6GJQsqaUBKTNV-1" source="Z6Fpm4Yamzv-W9hcDJNI-22">
          <mxGeometry relative="1" as="geometry">
            <mxPoint x="431" y="120" as="targetPoint" />
          </mxGeometry>
        </mxCell>
        <mxCell id="Z6Fpm4Yamzv-W9hcDJNI-22" value="LLM&amp;nbsp;" style="rounded=0;whiteSpace=wrap;html=1;fillColor=#f8cecc;strokeColor=#b85450;" vertex="1" parent="WIyWlLk6GJQsqaUBKTNV-1">
          <mxGeometry x="201" y="180" width="460" height="30" as="geometry" />
        </mxCell>
        <mxCell id="Z6Fpm4Yamzv-W9hcDJNI-23" style="edgeStyle=orthogonalEdgeStyle;rounded=0;orthogonalLoop=1;jettySize=auto;html=1;entryX=0.574;entryY=1.083;entryDx=0;entryDy=0;entryPerimeter=0;" edge="1" parent="WIyWlLk6GJQsqaUBKTNV-1" source="Z6Fpm4Yamzv-W9hcDJNI-11" target="Z6Fpm4Yamzv-W9hcDJNI-22">
          <mxGeometry relative="1" as="geometry" />
        </mxCell>
        <mxCell id="Z6Fpm4Yamzv-W9hcDJNI-25" value="Xa" style="text;html=1;align=center;verticalAlign=middle;whiteSpace=wrap;rounded=0;" vertex="1" parent="WIyWlLk6GJQsqaUBKTNV-1">
          <mxGeometry x="358.5" y="80" width="151.5" height="30" as="geometry" />
        </mxCell>
      </root>
    </mxGraphModel>
  </diagram>
</mxfile>
